<?xml version="1.0" encoding="UTF-8"?> <svg xmlns="http://www.w3.org/2000/svg" version="1.1" width="882" height="318"><path d="M0 0 C2.0305702 -0.00457239 4.06113885 -0.00988107 6.09170532 -0.0158844 C10.32943035 -0.02477315 14.5669665 -0.02244115 18.8046875 -0.01245117 C24.19622802 -0.00097051 29.58711265 -0.02118133 34.97856712 -0.05036831 C39.16714519 -0.06884299 43.35556936 -0.06841548 47.54417801 -0.06273079 C49.53020777 -0.06257893 51.51624888 -0.06850924 53.50223923 -0.08102226 C70.56682247 -0.17341491 86.56981128 0.94372129 99.78125 13.16015625 C105.28637059 19.15827271 107.87432796 25.17334436 109.0234375 33.20703125 C109.19327148 34.37411621 109.36310547 35.54120117 109.53808594 36.74365234 C109.6621582 37.63133301 109.78623047 38.51901367 109.9140625 39.43359375 C104.71802446 39.55729082 99.52284506 39.64797684 94.32568359 39.70825195 C92.55827912 39.73338016 90.7909784 39.76748891 89.02392578 39.81079102 C86.48183601 39.8715211 83.94112085 39.8998189 81.3984375 39.921875 C80.21541046 39.96058464 80.21541046 39.96058464 79.00848389 40.00007629 C76.76464844 40.0012207 76.76464844 40.0012207 72.9140625 39.43359375 C70.69628906 37.02807617 70.69628906 37.02807617 68.9140625 34.43359375 C64.77674082 32.20722579 60.79594521 32.14862029 56.20556641 32.17480469 C55.44554825 32.17130005 54.68553009 32.16779541 53.90248108 32.16418457 C51.39843519 32.15540659 48.8946736 32.16120362 46.390625 32.16796875 C44.64334052 32.16662069 42.8960564 32.16467898 41.14877319 32.16217041 C37.4887942 32.15922424 33.82891293 32.16349945 30.16894531 32.17285156 C25.48951214 32.18422889 20.81030885 32.17769434 16.13088417 32.16570663 C12.52253506 32.15845992 8.91423992 32.16078915 5.30588913 32.16596222 C3.58120064 32.16729182 1.85650717 32.16567527 0.13182449 32.16100311 C-2.28513196 32.15589345 -4.70172293 32.16371076 -7.11865234 32.17480469 C-8.17718163 32.16873199 -8.17718163 32.16873199 -9.25709534 32.16253662 C-13.91857845 32.20194381 -17.70121276 32.99663818 -22.0859375 34.43359375 C-22.50374629 36.80664953 -22.50374629 36.80664953 -22.0859375 39.43359375 C-17.67502676 43.1854205 -13.18641788 42.85666488 -7.69677734 42.81835938 C-6.75786652 42.82373215 -5.81895569 42.82910492 -4.85159302 42.8346405 C-2.81585114 42.84441115 -0.78006765 42.84736481 1.25569534 42.84428406 C4.4853924 42.83979894 7.7145435 42.8538288 10.94418335 42.87268066 C17.80913411 42.90945746 24.67402776 42.92315984 31.5390625 42.93359375 C39.4765927 42.94569831 47.41385736 42.9674244 55.35126877 43.01359558 C58.51908766 43.02709222 61.68656464 43.02300702 64.85440063 43.01818848 C78.56511346 43.05504535 92.26582697 43.4415473 102.921875 53.2890625 C110.5728133 61.56424054 112.24993183 70.01307096 112.125 81.08203125 C111.47282575 91.4443554 107.10599045 98.77315727 99.5390625 105.68359375 C85.35174447 117.02119131 67.16634024 117.04450779 49.87890625 116.96484375 C47.78536296 116.9675467 45.69182091 116.97143575 43.59828186 116.97644043 C39.23719178 116.98229642 34.87643215 116.97389859 30.51538086 116.95507812 C24.96584518 116.93227697 19.41708313 116.94544445 13.86757565 116.96936798 C9.55288513 116.98391994 5.23837378 116.97917742 0.92367744 116.96885681 C-1.12095675 116.96621615 -3.165608 116.96936387 -5.21022224 116.97877502 C-22.43243874 117.04068767 -38.60861937 116.04651135 -51.953125 103.70703125 C-53.49846839 102.0232989 -54.80659809 100.32569119 -56.0859375 98.43359375 C-56.66794922 97.59634766 -56.66794922 97.59634766 -57.26171875 96.7421875 C-59.91074294 92.28219405 -60.58942265 87.73891598 -61.1953125 82.65234375 C-61.28280762 81.9572168 -61.37030273 81.26208984 -61.46044922 80.54589844 C-61.6741136 78.84243717 -61.88073642 77.13809522 -62.0859375 75.43359375 C-56.87158889 75.310049 -51.6580906 75.21928295 -46.44262695 75.15893555 C-44.66838749 75.13378169 -42.89425174 75.09965414 -41.12036133 75.05639648 C-38.57086632 74.99577912 -36.02273999 74.96739448 -33.47265625 74.9453125 C-32.28188728 74.90660286 -32.28188728 74.90660286 -31.06706238 74.86711121 C-28.82299805 74.8659668 -28.82299805 74.8659668 -25.0859375 75.43359375 C-24.02607986 77.06285112 -23.02972513 78.73446377 -22.0859375 80.43359375 C-16.62162803 82.93796134 -11.98269031 83.87103746 -5.9609375 83.8059082 C-4.80803223 83.8113842 -4.80803223 83.8113842 -3.63183594 83.81697083 C-1.11630461 83.82501088 1.39856911 83.81152134 3.9140625 83.796875 C5.67708333 83.7963556 7.44010474 83.79687637 9.203125 83.79838562 C12.88810943 83.79829619 16.57287377 83.78792651 20.2578125 83.76977539 C24.96510034 83.74708942 29.67206706 83.74654736 34.37939453 83.75329304 C38.01695576 83.7566454 41.6544447 83.74997911 45.29199219 83.7401638 C47.02701437 83.73633336 48.76204463 83.73515458 50.49707031 83.73674965 C52.92788833 83.73712335 55.35830518 83.7244156 57.7890625 83.70825195 C58.84915527 83.71196808 58.84915527 83.71196808 59.93066406 83.71575928 C64.90601178 83.66334916 69.16001199 82.77156367 73.9140625 81.43359375 C73.9140625 79.78359375 73.9140625 78.13359375 73.9140625 76.43359375 C68.64599606 73.2097148 64.48245497 73.00648386 58.50317383 73.04882812 C57.1092189 73.04076897 57.1092189 73.04076897 55.68710327 73.032547 C53.67538846 73.02278799 51.66363164 73.01981916 49.65189552 73.02290344 C46.4599222 73.02739464 43.26849948 73.01334203 40.07658386 72.99450684 C33.29325237 72.95776238 26.50997883 72.94403088 19.7265625 72.93359375 C11.87949068 72.92148579 4.03268738 72.89976074 -3.8142643 72.85359192 C-6.94441634 72.84010017 -10.07422216 72.84417924 -13.20439148 72.84899902 C-27.17032226 72.81049722 -41.00828267 72.17909066 -51.8359375 62.24609375 C-58.532747 55.13646722 -60.37492477 46.53398427 -60.234375 37.046875 C-59.65738864 26.88887821 -55.71269987 18.04214577 -48.21484375 11.0625 C-33.86587252 0.08356238 -17.19192688 -0.03417416 0 0 Z " fill="#0C0C5A" transform="translate(669.0859375,92.56640625)"></path><path d="M0 0 C31.53488522 -0.08060607 31.53488522 -0.08060607 44.81640625 -0.09765625 C53.96307637 -0.10949308 63.10970947 -0.12335827 72.25634766 -0.15087891 C78.91974635 -0.17091822 85.58311482 -0.18374124 92.24654281 -0.18817699 C95.76930035 -0.19076667 99.29197146 -0.19678068 102.81470108 -0.21146011 C106.76336441 -0.22777841 110.71194597 -0.227973 114.66064453 -0.22705078 C115.8072052 -0.23424133 116.95376587 -0.24143188 118.1350708 -0.24884033 C135.93224753 -0.20420638 149.75251141 2.52195731 162.94140625 14.80859375 C171.45645041 23.65467635 174.36141756 35.06363991 174.21484375 47.06640625 C173.46652634 57.28434038 169.18738618 67.61836014 162 75 C152.93684211 82 152.93684211 82 150 82 C154.139769 90.41185938 159.28923968 97.97455097 164.68041992 105.62426758 C165.51536987 106.81765747 165.51536987 106.81765747 166.3671875 108.03515625 C166.87362793 108.7506665 167.38006836 109.46617676 167.90185547 110.20336914 C169 112 169 112 169 114 C163.20247246 114.39819236 157.41299994 114.68687387 151.60498047 114.87890625 C149.63482057 114.95896518 147.66559993 115.06787679 145.69873047 115.20703125 C129.85703982 116.2990079 129.85703982 116.2990079 125.16442871 112.52294922 C121.4484604 108.17403967 119.29184625 103.19711043 117 98 C115.35 95.03 113.7 92.06 112 89 C87.25 88.67 62.5 88.34 37 88 C37 96.58 37 105.16 37 114 C24.79 114 12.58 114 0 114 C0 76.38 0 38.76 0 0 Z M37 32 C37 39.92 37 47.84 37 56 C48.89167365 56.09039925 60.78311876 56.16377283 72.67505836 56.20724869 C78.19707641 56.2281158 83.71884701 56.25641786 89.24072266 56.30175781 C94.57050379 56.3452462 99.90004703 56.3691437 105.22999191 56.37950897 C107.26256428 56.38689492 109.29512376 56.40131798 111.32759476 56.42292023 C114.17652688 56.45199369 117.02447834 56.45595432 119.87353516 56.45410156 C120.71223145 56.46848267 121.55092773 56.48286377 122.41503906 56.49768066 C127.73772237 56.4602708 130.80514818 55.5775182 135 52 C137.37816451 48.06116503 138.11580474 45.959525 137.5625 41.375 C135.59549157 37.12626179 133.82299978 35.65269373 130 33 C126.11624284 31.70541428 122.44439883 31.86896219 118.39770508 31.88647461 C117.51944565 31.88632858 116.64118622 31.88618256 115.73631287 31.8860321 C112.83069395 31.88672928 109.92513898 31.89451261 107.01953125 31.90234375 C105.00599706 31.90420862 102.99246242 31.9056322 100.97892761 31.90663147 C95.67708078 31.91045121 90.37526131 31.92027688 85.07342529 31.93133545 C79.66418833 31.94156123 74.25494696 31.9461316 68.84570312 31.95117188 C58.23045479 31.96189961 47.61523395 31.97949204 37 32 Z " fill="#0C0C5A" transform="translate(423,94)"></path><path d="M0 0 C39.69368579 0 39.69368579 0 52.80126953 12.90429688 C56.45019646 16.38224366 60.48317168 19.33932726 64.5 22.375 C65.97974843 23.5275333 67.45768312 24.68239992 68.93359375 25.83984375 C73.36899454 29.2985666 77.85760745 32.67890204 82.3828125 36.01953125 C84.13994794 37.34918448 85.86444101 38.72301106 87.5546875 40.13671875 C88.34101562 40.79285156 89.12734375 41.44898438 89.9375 42.125 C90.60652344 42.70507812 91.27554688 43.28515625 91.96484375 43.8828125 C93.94710325 45.17472136 93.94710325 45.17472136 96.28515625 45.05078125 C100.32520385 43.48707937 103.22846443 40.85606933 106.5 38.0625 C107.9389838 36.86323774 109.37910109 35.66533431 110.8203125 34.46875 C111.5309082 33.87578125 112.24150391 33.2828125 112.97363281 32.671875 C117.27433125 29.12353971 121.73705427 25.78618669 126.16894531 22.40429688 C129.8777431 19.55989622 133.56220005 16.68403552 137.25 13.8125 C138.34900635 12.95700562 138.34900635 12.95700562 139.47021484 12.08422852 C141.64692165 10.38962921 143.82346059 8.69481429 146 7 C155 0 155 0 191 0 C191 37.62 191 75.24 191 114 C179.12 114 167.24 114 155 114 C154.67 91.89 154.34 69.78 154 47 C146.08 53.435 146.08 53.435 138 60 C133.91342838 63.22624075 129.82564074 66.44849395 125.72216797 69.65283203 C123.3770674 71.48728978 121.03906162 73.33068284 118.70117188 75.17431641 C116.96156104 76.54356159 115.21736239 77.90678762 113.47265625 79.26953125 C111.08425027 81.13769039 108.72217676 83.03434098 106.37109375 84.94921875 C105.20582734 85.88293503 104.04046631 86.81653324 102.875 87.75 C102.34253662 88.19287354 101.81007324 88.63574707 101.26147461 89.09204102 C99.7421875 90.296875 99.7421875 90.296875 97 92 C92.44501487 91.43281377 89.47316758 88.39884928 86.0625 85.5625 C84.71178148 84.45990278 83.36020453 83.35835643 82.0078125 82.2578125 C80.99509277 81.43071777 80.99509277 81.43071777 79.96191406 80.58691406 C77.1587694 78.31956211 74.30459053 76.12306901 71.4375 73.9375 C66.98891313 70.53887749 62.57887571 67.09736609 58.1875 63.625 C50.54198052 57.64154997 42.76682761 51.82512071 35 46 C35 68.44 35 90.88 35 114 C23.45 114 11.9 114 0 114 C0 76.38 0 38.76 0 0 Z " fill="#0C0C5A" transform="translate(27,94)"></path><path d="M0 0 C42.57 0 85.14 0 129 0 C144.4613499 57.08806117 144.4613499 57.08806117 150.24389648 78.85498047 C151.16807973 82.33366931 152.09574864 85.81142061 153.02398396 89.28903008 C153.75737675 92.03878837 154.48856867 94.78912818 155.21910667 97.53964615 C155.72505262 99.44243652 156.23326175 101.34462466 156.74153137 103.24679565 C157.03992416 104.37304352 157.33831696 105.49929138 157.64575195 106.65966797 C157.90854446 107.64740204 158.17133698 108.63513611 158.4420929 109.65280151 C159 112 159 112 159 114 C146.79 114 134.58 114 122 114 C118 101 118 101 117 97 C64.53 96.505 64.53 96.505 11 96 C10.34 99.63 9.68 103.26 9 107 C8.34 109.31 7.68 111.62 7 114 C-5.21 114 -17.42 114 -30 114 C-28.64014138 107.20070689 -27.18364227 100.54547992 -25.41796875 93.85620117 C-25.16729645 92.89716888 -24.91662415 91.9381366 -24.65835571 90.95004272 C-23.83767559 87.81357291 -23.01275768 84.67823698 -22.1875 81.54296875 C-21.61206052 79.34967751 -21.03678646 77.15634286 -20.46166992 74.96296692 C-19.25989545 70.38243785 -18.05598972 65.80247567 -16.85058594 61.22290039 C-15.30634048 55.35521649 -13.76765616 49.4860909 -12.23057556 43.6165266 C-11.04557897 39.09407888 -9.85754942 34.57243217 -8.66860962 30.05101967 C-8.09990581 27.88673379 -7.53217001 25.7221933 -6.96542358 23.55739403 C-6.17405605 20.53638018 -5.3785859 17.51647584 -4.58203125 14.49682617 C-4.34924469 13.60478989 -4.11645813 12.7127536 -3.87661743 11.79368591 C-3.65799042 10.96826294 -3.4393634 10.14283997 -3.21411133 9.29240417 C-3.02681961 8.57994128 -2.83952789 7.86747839 -2.64656067 7.13342571 C-1.91097778 4.70625758 -0.94191495 2.35478737 0 0 Z M28 32 C25.90489739 38.28530784 23.98819448 44.42866092 22.3125 50.8125 C22.08755859 51.64458984 21.86261719 52.47667969 21.63085938 53.33398438 C21.41880859 54.13771484 21.20675781 54.94144531 20.98828125 55.76953125 C20.79790283 56.48729736 20.60752441 57.20506348 20.41137695 57.94458008 C19.86916632 60.30433874 19.86916632 60.30433874 20 64 C49.37 64 78.74 64 109 64 C106.36 53.44 103.72 42.88 101 32 C76.91 32 52.82 32 28 32 Z " fill="#0C0C5A" transform="translate(256,94)"></path><path d="M0 0 C8.66262732 7.1037087 13.304832 14.92631178 14.5625 26.1875 C15.10870796 37.15367516 12.2479598 46.98368122 4.796875 55.296875 C-3.23463849 62.69598586 -13.12366381 66.80633244 -24.15234375 66.43359375 C-35.63472489 65.12547438 -44.4645219 60.21748049 -51.80859375 51.33984375 C-58.34407308 41.98646944 -59.63042663 31.6149758 -57.88671875 20.46484375 C-55.33284704 10.57838333 -49.45686611 3.05378197 -40.90625 -2.40625 C-27.69580205 -9.56854106 -12.27814585 -8.67376591 0 0 Z M-37.875 15.59375 C-42.13064974 20.31197036 -43.62331334 25.94115448 -43.3125 32.1875 C-41.86583775 38.53940113 -39.27330335 42.97516507 -34.19140625 47.03125 C-28.45503404 50.5613252 -22.90969713 51.0850149 -16.3125 50.1875 C-9.82633737 47.63897404 -5.46150236 42.87150405 -2 36.9375 C-0.35017906 30.33821625 -0.47368706 23.9772678 -3.9296875 18.0078125 C-8.26367226 12.30262352 -13.74995633 9.29448503 -20.796875 8.24609375 C-27.62245395 8.08711287 -32.99941481 10.98903065 -37.875 15.59375 Z " fill="#ED4415" transform="translate(838.3125,42.8125)"></path><path d="M0 0 C2 3 2 3 2 6 C-0.3125 6.1875 -0.3125 6.1875 -3 6 C-3.63035156 5.27683594 -3.63035156 5.27683594 -4.2734375 4.5390625 C-6.80277232 2.28440657 -8.97625425 2.41453402 -12.3125 2.1875 C-13.42238281 2.09855469 -14.53226563 2.00960937 -15.67578125 1.91796875 C-19.2489123 2.00614237 -21.77246304 2.46012638 -25 4 C-25.70190505 6.03001915 -25.70190505 6.03001915 -26 8 C-25.39526855 8.01981934 -24.79053711 8.03963867 -24.16748047 8.06005859 C-21.40291491 8.15586299 -18.63904826 8.26531555 -15.875 8.375 C-14.92367187 8.4059375 -13.97234375 8.436875 -12.9921875 8.46875 C-1.03294837 8.96705163 -1.03294837 8.96705163 3 13 C3.33938407 16.00597324 3.56822757 18.10146543 3 21 C-0.87848541 25.20169253 -4.2955935 25.9095621 -9.828125 26.203125 C-25.12983235 26.47418086 -25.12983235 26.47418086 -31 23 C-32.5 20.3125 -32.5 20.3125 -33 18 C-29.68373306 17.69852119 -28.02473594 17.98763203 -25 19.5 C-19.0898599 22.24678318 -11.17214556 22.11580861 -5.1015625 19.98046875 C-4.06128906 19.49513672 -4.06128906 19.49513672 -3 19 C-3 17.68 -3 16.36 -3 15 C-3.6705542 14.95512451 -4.3411084 14.91024902 -5.03198242 14.86401367 C-8.08493491 14.65203608 -11.13604271 14.41997455 -14.1875 14.1875 C-15.24259766 14.11724609 -16.29769531 14.04699219 -17.38476562 13.97460938 C-18.40634766 13.89404297 -19.42792969 13.81347656 -20.48046875 13.73046875 C-21.41785889 13.66239014 -22.35524902 13.59431152 -23.32104492 13.52416992 C-26.47562828 12.90693758 -28.46044055 11.96817977 -31 10 C-31.51569395 6.75112814 -31.77103277 5.05945804 -31 2 C-24.01114145 -5.78758524 -8.6489176 -4.71230264 0 0 Z " fill="#0C0C5A" transform="translate(117,225)"></path><path d="M0 0 C0.75990234 -0.03738281 1.51980469 -0.07476562 2.30273438 -0.11328125 C6.50914123 -0.17906346 8.19946624 0.00721571 11.66796875 2.62109375 C14.54005908 6.53758057 14.97372983 9.59327811 14.6875 14.375 C13.52171384 17.93712438 12.86450631 19.76228294 9.50390625 21.51171875 C3.70909841 23.28793585 -3.78725813 23.69540862 -9.5234375 21.546875 C-11.73064822 20.10411287 -13.13020094 18.73959812 -14.3125 16.375 C-14.84368252 11.45503072 -15.06355553 7.60172403 -12.4375 3.3125 C-8.58719477 -0.19807242 -4.9927253 0.0917627 0 0 Z M-8.15234375 5.65234375 C-9.9297297 8.29149258 -9.85766067 10.3923039 -9.71484375 13.5 C-9.4375147 15.59920832 -9.4375147 15.59920832 -7.375 17.375 C-2.64883421 18.91823781 2.21685562 19.37284403 6.90234375 17.48046875 C8.84784131 16.49179997 8.84784131 16.49179997 9.6875 14.375 C10.06941741 10.86135979 10.2161595 9.07358576 8.046875 6.20703125 C5.0547144 3.88364827 3.37571013 3.8677842 -0.375 3.9375 C-1.41785156 3.93878906 -2.46070313 3.94007813 -3.53515625 3.94140625 C-6.29648786 4.16539784 -6.29648786 4.16539784 -8.15234375 5.65234375 Z " fill="#0C0C5A" transform="translate(225.3125,228.625)"></path><path d="M0 0 C0.74636719 -0.01546875 1.49273437 -0.0309375 2.26171875 -0.046875 C6.17959884 -0.0191378 8.09071541 0.23719621 11.46875 2.40625 C14.8742184 5.91650205 14.77931535 8.53323182 14.71875 13.2421875 C14.41889867 16.33708155 13.50312491 18.13917422 11.5 20.5 C7.97340771 22.82919118 4.78290956 22.79908739 0.625 22.8125 C-0.56867188 22.82925781 -1.76234375 22.84601563 -2.9921875 22.86328125 C-6.82479503 22.4663631 -9.22442991 21.49340455 -12.5 19.5 C-15.2072046 15.61574993 -14.56339869 11.4303842 -14.27734375 6.90234375 C-12.04936371 0.01687778 -6.18300547 -0.12814519 0 0 Z M-9.5 8.5 C-10.00299316 12.60777749 -9.82749345 14.00875983 -7.5 17.5 C-2.43584795 19.18805068 2.48913806 19.15660798 7.5625 17.5 C10.14809333 14.83100043 10.02334182 13.04056009 9.96875 9.4375 C9.34949002 6.87789209 8.66733107 6.00470756 6.5 4.5 C3.67076395 3.9857431 3.67076395 3.9857431 0.5625 4.0625 C-0.47777344 4.04316406 -1.51804688 4.02382812 -2.58984375 4.00390625 C-6.16239371 4.61291812 -7.33069111 5.645375 -9.5 8.5 Z " fill="#0C0C5A" transform="translate(194.5,228.5)"></path><path d="M0 0 C1.65 0 3.3 0 5 0 C5 2.31 5 4.62 5 7 C5.66 6.67 6.32 6.34 7 6 C9.12143022 5.85132834 11.24855992 5.7786711 13.375 5.75 C15.08816406 5.71132812 15.08816406 5.71132812 16.8359375 5.671875 C20.27258246 6.02826781 21.59919789 6.56506326 24 9 C25.25433458 12.76300374 25.10695422 16.27210909 25.0625 20.1875 C25.05798828 20.93708984 25.05347656 21.68667969 25.04882812 22.45898438 C25.03706354 24.30602383 25.01912865 26.15302213 25 28 C23.35 28 21.7 28 20 28 C19.67 22.39 19.34 16.78 19 11 C14.71 11 10.42 11 6 11 C5.67 16.61 5.34 22.22 5 28 C3.35 28 1.7 28 0 28 C0 18.76 0 9.52 0 0 Z " fill="#0C0C5A" transform="translate(153,223)"></path><path d="M0 0 C0.71220703 -0.03738281 1.42441406 -0.07476562 2.15820312 -0.11328125 C6.23711249 -0.18120018 7.97095848 0.20255319 11.19921875 2.7734375 C13.1875 5.375 13.1875 5.375 13.1875 7.375 C10.8125 7.5 10.8125 7.5 8.1875 7.375 C7.5275 6.715 6.8675 6.055 6.1875 5.375 C3.39404922 5.01672858 3.39404922 5.01672858 0.25 5.0625 C-0.81089844 5.04574219 -1.87179688 5.02898437 -2.96484375 5.01171875 C-5.79671632 5.15226263 -5.79671632 5.15226263 -7.69921875 6.671875 C-9.14945935 8.53338754 -9.14945935 8.53338754 -8.6875 11.9375 C-8.15616067 15.62942394 -8.15616067 15.62942394 -4.8125 17.375 C-2.62913332 17.6536158 -2.62913332 17.6536158 -0.3125 17.5625 C0.84765625 17.55283203 0.84765625 17.55283203 2.03125 17.54296875 C4.37098849 17.4480565 4.37098849 17.4480565 7.1875 16.375 C7.5175 15.715 7.8475 15.055 8.1875 14.375 C9.8375 14.375 11.4875 14.375 13.1875 14.375 C13.0625 16.6875 13.0625 16.6875 12.1875 19.375 C7.47535037 23.17089831 2.08274225 22.7326308 -3.69140625 22.7734375 C-8.1067836 22.20977231 -10.70491945 20.48258055 -13.8125 17.375 C-14.1484375 14.6953125 -14.1484375 14.6953125 -14.1875 11.5 C-14.21585937 10.45070312 -14.24421875 9.40140625 -14.2734375 8.3203125 C-13.70954535 4.71713725 -12.61891659 3.61804672 -9.8125 1.375 C-6.69650206 -0.18299897 -3.41845599 0.06696886 0 0 Z " fill="#0C0C5A" transform="translate(136.8125,228.625)"></path><path d="M0 0 C11.55 0 23.1 0 35 0 C35 1.32 35 2.64 35 4 C30.05 4 25.1 4 20 4 C20 11.92 20 19.84 20 28 C18.35 28 16.7 28 15 28 C15 20.08 15 12.16 15 4 C10.05 4 5.1 4 0 4 C0 2.68 0 1.36 0 0 Z " fill="#0C0C5A" transform="translate(35,223)"></path><path d="M0 0 C1.32 0 2.64 0 4 0 C4 9.24 4 18.48 4 28 C2.68 28 1.36 28 0 28 C0 18.76 0 9.52 0 0 Z " fill="#0C0C5A" transform="translate(243,223)"></path><path d="M0 0 C1.32 0 2.64 0 4 0 C4 9.24 4 18.48 4 28 C2.68 28 1.36 28 0 28 C0 18.76 0 9.52 0 0 Z " fill="#0C0C5A" transform="translate(27,223)"></path></svg> 